<svg width="25" height="24" viewBox="0 0 25 24" fill="none" xmlns="http://www.w3.org/2000/svg">
<g id="health_and_safety">
<path id="Vector" d="M10.75 12.9331H9.75C8.92 12.9331 8.25 12.2631 8.25 11.4331C8.25 10.6031 8.92 9.93311 9.75 9.93311H10.75V8.93311C10.75 8.10311 11.42 7.43311 12.25 7.43311C13.08 7.43311 13.75 8.10311 13.75 8.93311V9.93311H14.75C15.58 9.93311 16.25 10.6031 16.25 11.4331C16.25 12.2631 15.58 12.9331 14.75 12.9331H13.75V13.9331C13.75 14.7631 13.08 15.4331 12.25 15.4331C11.42 15.4331 10.75 14.7631 10.75 13.9331V12.9331ZM11.55 2.19311L5.55 4.44311C4.77 4.74311 4.25 5.48311 4.25 6.32311V11.0231C4.25 16.0731 7.66 20.7831 12.25 21.9331C16.84 20.7831 20.25 16.0731 20.25 11.0231V6.32311C20.25 5.49311 19.73 4.74311 18.95 4.45311L12.95 2.20311C12.5 2.02311 12 2.02311 11.55 2.19311Z" fill="#9E9E9E"/>
</g>
</svg>
