<svg width="25" height="24" viewBox="0 0 25 24" fill="none" xmlns="http://www.w3.org/2000/svg">
<g id="groups" clip-path="url(#clip0_1141_1711)">
<path id="Vector" d="M12.25 12.75C13.88 12.75 15.32 13.14 16.49 13.65C17.57 14.13 18.25 15.21 18.25 16.38V17C18.25 17.55 17.8 18 17.25 18H7.25C6.7 18 6.25 17.55 6.25 17V16.39C6.25 15.21 6.93 14.13 8.01 13.66C9.18 13.14 10.62 12.75 12.25 12.75ZM4.25 13C5.35 13 6.25 12.1 6.25 11C6.25 9.9 5.35 9 4.25 9C3.15 9 2.25 9.9 2.25 11C2.25 12.1 3.15 13 4.25 13ZM5.38 14.1C5.01 14.04 4.64 14 4.25 14C3.26 14 2.32 14.21 1.47 14.58C0.73 14.9 0.25 15.62 0.25 16.43V17C0.25 17.55 0.7 18 1.25 18H4.75V16.39C4.75 15.56 4.98 14.78 5.38 14.1ZM20.25 13C21.35 13 22.25 12.1 22.25 11C22.25 9.9 21.35 9 20.25 9C19.15 9 18.25 9.9 18.25 11C18.25 12.1 19.15 13 20.25 13ZM24.25 16.43C24.25 15.62 23.77 14.9 23.03 14.58C22.18 14.21 21.24 14 20.25 14C19.86 14 19.49 14.04 19.12 14.1C19.52 14.78 19.75 15.56 19.75 16.39V18H23.25C23.8 18 24.25 17.55 24.25 17V16.43ZM12.25 6C13.91 6 15.25 7.34 15.25 9C15.25 10.66 13.91 12 12.25 12C10.59 12 9.25 10.66 9.25 9C9.25 7.34 10.59 6 12.25 6Z" fill="#9E9E9E"/>
</g>
<defs>
<clipPath id="clip0_1141_1711">
<rect width="24" height="24" fill="white" transform="translate(0.25)"/>
</clipPath>
</defs>
</svg>
