<svg width="25" height="24" viewBox="0 0 25 24" fill="none" xmlns="http://www.w3.org/2000/svg">
<g id="find_in_page">
<path id="Vector" d="M20.75 19.59V8.83C20.75 8.3 20.54 7.79 20.16 7.42L15.33 2.59C14.96 2.21 14.45 2 13.92 2H6.75C5.65 2 4.76 2.9 4.76 4L4.75 20C4.75 21.1 5.64 22 6.74 22H18.75C19.2 22 19.6 21.85 19.94 21.6L15.51 17.17C14.65 17.73 13.62 18.05 12.51 17.99C10.14 17.88 8.11 16.03 7.79 13.68C7.35 10.33 10.24 7.5 13.62 8.07C15.57 8.4 17.19 9.92 17.62 11.85C17.95 13.31 17.63 14.67 16.92 15.75L20.75 19.59ZM9.75 13C9.75 14.66 11.09 16 12.75 16C14.41 16 15.75 14.66 15.75 13C15.75 11.34 14.41 10 12.75 10C11.09 10 9.75 11.34 9.75 13Z" fill="#9E9E9E"/>
</g>
</svg>
